<mxfile host="app.diagrams.net" modified="2024-07-09T18:31:11.401Z" agent="Mozilla/5.0 (X11; Linux x86_64) AppleWebKit/537.36 (KHTML, like Gecko) Chrome/120.0.0.0 Safari/537.36" etag="ODcI43Uixz_bnA4CM6Yy" version="24.6.4" type="device">
  <diagram name="Page-1" id="LobpDA-Tr5cMrUHZEfPc">
    <mxGraphModel dx="2954" dy="1101" grid="0" gridSize="10" guides="1" tooltips="1" connect="1" arrows="1" fold="1" page="1" pageScale="1" pageWidth="1100" pageHeight="850" math="0" shadow="0">
      <root>
        <mxCell id="0" />
        <mxCell id="1" parent="0" />
        <mxCell id="wf1mn4gk6DvyiKfGatTj-70" value="" style="rounded=1;whiteSpace=wrap;html=1;fontSize=13;shadow=0;arcSize=2;fillColor=none;strokeWidth=1;strokeColor=#000000;container=0;fontFamily=Courier New;" parent="1" vertex="1">
          <mxGeometry x="80" y="81.01" width="867" height="663.99" as="geometry" />
        </mxCell>
        <mxCell id="pyyxjIHwbWCA1qoJpp-k-6" value="" style="rounded=1;whiteSpace=wrap;html=1;fontSize=13;shadow=0;arcSize=6;strokeWidth=1;container=0;fontFamily=Courier New;" parent="1" vertex="1">
          <mxGeometry x="104.97535665852996" y="312.6512532698452" width="539.7992948196365" height="409.7077490591581" as="geometry" />
        </mxCell>
        <mxCell id="wf1mn4gk6DvyiKfGatTj-1" value="Core&lt;div&gt;&lt;br&gt;&lt;/div&gt;" style="rounded=1;whiteSpace=wrap;html=1;fontSize=18;glass=0;shadow=1;fillColor=#f8cecc;strokeColor=#b85450;fontFamily=Courier New;textShadow=1;textOpacity=70;container=0;" parent="1" vertex="1">
          <mxGeometry x="105.82" y="104.59" width="534.18" height="132.83" as="geometry" />
        </mxCell>
        <mxCell id="wf1mn4gk6DvyiKfGatTj-68" value="" style="endArrow=classic;startArrow=none;html=1;rounded=0;shadow=1;startFill=0;fontFamily=Courier New;fontSize=13;" parent="1" edge="1">
          <mxGeometry width="50" height="50" relative="1" as="geometry">
            <mxPoint x="975.7842000260872" y="458.45496028456654" as="sourcePoint" />
            <mxPoint x="857.5743353685427" y="458.04439072075724" as="targetPoint" />
          </mxGeometry>
        </mxCell>
        <mxCell id="wf1mn4gk6DvyiKfGatTj-71" value="&lt;font data-font-src=&quot;https://fonts.googleapis.com/css?family=Dancing+script&quot; style=&quot;font-size: 18px;&quot; color=&quot;#000000&quot;&gt;Controller&lt;/font&gt;" style="rounded=1;whiteSpace=wrap;html=1;fontSize=18;shadow=1;fillColor=#f5f5f5;strokeColor=#666666;fontFamily=Courier New;textShadow=1;textOpacity=70;fontColor=#333333;container=0;" parent="1" vertex="1">
          <mxGeometry x="673.6924708435041" y="314.4028790381677" width="183.87877407106046" height="215.53364053010074" as="geometry" />
        </mxCell>
        <mxCell id="wf1mn4gk6DvyiKfGatTj-74" value="" style="endArrow=classic;startArrow=classic;html=1;rounded=0;entryX=1;entryY=0.5;entryDx=0;entryDy=0;shadow=1;exitX=0;exitY=0.5;exitDx=0;exitDy=0;fontFamily=Courier New;fontSize=13;" parent="1" source="fVumDO0Jktd5kN5cqDBQ-81" target="wf1mn4gk6DvyiKfGatTj-1" edge="1">
          <mxGeometry width="50" height="50" relative="1" as="geometry">
            <mxPoint x="696.8708756783169" y="164.9633116021439" as="sourcePoint" />
            <mxPoint x="644.3331580527415" y="236.9095898720026" as="targetPoint" />
          </mxGeometry>
        </mxCell>
        <mxCell id="wf1mn4gk6DvyiKfGatTj-77" value="Config" style="text;html=1;align=left;verticalAlign=middle;whiteSpace=wrap;rounded=0;fontSize=15;shadow=0;textShadow=1;fontFamily=Courier New;textOpacity=70;container=0;" parent="1" vertex="1">
          <mxGeometry x="983.6650828315704" y="440.3462049606896" width="55.91491716842961" height="36.22949088967" as="geometry" />
        </mxCell>
        <mxCell id="12QicWPfA-HmWLYRQqsE-48" value="GPU-based Accelerator with Cache" style="text;html=1;align=left;verticalAlign=middle;whiteSpace=wrap;rounded=0;fontSize=18;shadow=0;textShadow=1;fontFamily=Courier New;textOpacity=70;container=0;" parent="1" vertex="1">
          <mxGeometry x="102.99778062803702" y="48" width="420.30174100460255" height="36.22672621845859" as="geometry" />
        </mxCell>
        <mxCell id="fVumDO0Jktd5kN5cqDBQ-76" value="" style="endArrow=none;html=1;rounded=0;shadow=1;strokeColor=#b85450;fillColor=#f8cecc;fontFamily=Courier New;fontSize=13;" parent="1" edge="1">
          <mxGeometry width="50" height="50" relative="1" as="geometry">
            <mxPoint x="877.2759794781334" y="470.5305356907193" as="sourcePoint" />
            <mxPoint x="903.5448382909212" y="446.3793848784136" as="targetPoint" />
          </mxGeometry>
        </mxCell>
        <mxCell id="fVumDO0Jktd5kN5cqDBQ-77" value="32-bit" style="text;html=1;align=left;verticalAlign=middle;whiteSpace=wrap;rounded=0;fontSize=12;shadow=0;textShadow=1;labelBorderColor=none;labelBackgroundColor=none;fontFamily=Courier New;textOpacity=70;fontColor=#990000;container=0;" parent="1" vertex="1">
          <mxGeometry x="866.076174261952" y="421.7706333138748" width="52.53771762557532" height="36.22672621845859" as="geometry" />
        </mxCell>
        <mxCell id="fVumDO0Jktd5kN5cqDBQ-78" value="OBI" style="text;html=1;align=left;verticalAlign=middle;whiteSpace=wrap;rounded=0;fontSize=13;shadow=0;textShadow=1;labelBorderColor=none;labelBackgroundColor=none;fontFamily=Courier New;textOpacity=70;container=0;" parent="1" vertex="1">
          <mxGeometry x="916.0020529941181" y="429.40090668795375" width="52.53771762557532" height="36.22672621845859" as="geometry" />
        </mxCell>
        <mxCell id="fVumDO0Jktd5kN5cqDBQ-81" value="&lt;font color=&quot;#000000&quot; style=&quot;font-size: 15px;&quot; data-font-src=&quot;https://fonts.googleapis.com/css?family=Dancing+script&quot;&gt;Clock Gate&lt;/font&gt;&lt;div style=&quot;line-height: 100%; font-size: 15px;&quot;&gt;&lt;font color=&quot;#000000&quot; style=&quot;font-size: 15px;&quot; data-font-src=&quot;https://fonts.googleapis.com/css?family=Dancing+script&quot;&gt;Cell&lt;/font&gt;&lt;/div&gt;" style="rounded=1;whiteSpace=wrap;html=1;fontSize=15;shadow=1;fillColor=#e1d5e7;strokeColor=#9673a6;fontFamily=Courier New;textShadow=1;textOpacity=70;container=0;" parent="1" vertex="1">
          <mxGeometry x="699.9611824918168" y="140.81216078983817" width="131.3442940639383" height="60.3778770307643" as="geometry" />
        </mxCell>
        <mxCell id="fVumDO0Jktd5kN5cqDBQ-82" value="" style="endArrow=classic;startArrow=classic;html=1;rounded=0;shadow=1;endFill=1;entryX=0.5;entryY=1;entryDx=0;entryDy=0;fontFamily=Courier New;fontSize=13;" parent="1" edge="1">
          <mxGeometry width="50" height="50" relative="1" as="geometry">
            <mxPoint x="765.2655655004068" y="313.7947784829779" as="sourcePoint" />
            <mxPoint x="765.151365867697" y="201.19003782060247" as="targetPoint" />
          </mxGeometry>
        </mxCell>
        <mxCell id="g4mfnfhtcn-6cVCVcIuM-1" value="" style="endArrow=none;startArrow=classic;html=1;rounded=0;shadow=1;startFill=1;endFill=0;fontFamily=Courier New;fontSize=13;" parent="1" edge="1">
          <mxGeometry width="50" height="50" relative="1" as="geometry">
            <mxPoint x="975.7842000260872" y="388.9224624270777" as="sourcePoint" />
            <mxPoint x="857.5743353685427" y="388.5118928632684" as="targetPoint" />
          </mxGeometry>
        </mxCell>
        <mxCell id="g4mfnfhtcn-6cVCVcIuM-2" value="Interrupt" style="text;html=1;align=left;verticalAlign=middle;whiteSpace=wrap;rounded=0;fontSize=15;shadow=0;textShadow=1;fontFamily=Courier New;textOpacity=70;container=0;" parent="1" vertex="1">
          <mxGeometry x="983.6650828315704" y="369.51199185224743" width="55.91491716842961" height="36.22949088967" as="geometry" />
        </mxCell>
        <mxCell id="12QicWPfA-HmWLYRQqsE-20" value="" style="endArrow=none;startArrow=classic;html=1;rounded=0;shadow=1;endFill=0;exitX=0.5;exitY=0;exitDx=0;exitDy=0;fontFamily=Courier New;fontSize=13;" parent="1" source="ezgv-_dQjElpDktnh5IQ-1" edge="1">
          <mxGeometry width="50" height="50" relative="1" as="geometry">
            <mxPoint x="538.4211663426481" y="310.9697293945385" as="sourcePoint" />
            <mxPoint x="538.2110154721458" y="238.51627695762127" as="targetPoint" />
          </mxGeometry>
        </mxCell>
        <mxCell id="12QicWPfA-HmWLYRQqsE-43" value="Instruction" style="text;html=1;align=center;verticalAlign=middle;whiteSpace=wrap;rounded=0;fontSize=13;shadow=0;textShadow=1;labelBorderColor=none;labelBackgroundColor=none;fontFamily=Courier New;textOpacity=70;container=0;" parent="1" vertex="1">
          <mxGeometry x="499.464448723284" y="205.47686708978674" width="78.80657643836298" height="36.22672621845859" as="geometry" />
        </mxCell>
        <mxCell id="fVumDO0Jktd5kN5cqDBQ-33" value="Mem" style="text;html=1;align=left;verticalAlign=middle;whiteSpace=wrap;rounded=0;fontSize=13;shadow=0;textShadow=1;labelBorderColor=none;labelBackgroundColor=none;fontFamily=Courier New;textOpacity=70;container=0;" parent="1" vertex="1">
          <mxGeometry x="538.8677369424655" y="262.66742776992703" width="52.53771762557532" height="36.22672621845859" as="geometry" />
        </mxCell>
        <mxCell id="12QicWPfA-HmWLYRQqsE-44" value="&lt;p style=&quot;line-height: 100%; font-size: 13px;&quot;&gt;Data Thread 0&lt;/p&gt;" style="text;html=1;align=center;verticalAlign=middle;whiteSpace=wrap;rounded=0;fontSize=13;shadow=0;textShadow=1;labelBorderColor=none;labelBackgroundColor=none;fontFamily=Courier New;textOpacity=70;container=0;" parent="1" vertex="1">
          <mxGeometry x="133.89317602386762" y="201.19353041763497" width="78.80657643836298" height="36.22672621845859" as="geometry" />
        </mxCell>
        <mxCell id="12QicWPfA-HmWLYRQqsE-45" value="&lt;p style=&quot;line-height: 100%; font-size: 13px;&quot;&gt;Data Thread 1&lt;/p&gt;" style="text;html=1;align=center;verticalAlign=middle;whiteSpace=wrap;rounded=0;fontSize=13;shadow=0;textShadow=1;labelBorderColor=none;labelBackgroundColor=none;fontFamily=Courier New;textOpacity=70;container=0;" parent="1" vertex="1">
          <mxGeometry x="225.83418186862448" y="201.19353041763497" width="78.80657643836298" height="36.22672621845859" as="geometry" />
        </mxCell>
        <mxCell id="12QicWPfA-HmWLYRQqsE-46" value="&lt;p style=&quot;line-height: 100%; font-size: 13px;&quot;&gt;Data Thread 2&lt;/p&gt;" style="text;html=1;align=center;verticalAlign=middle;whiteSpace=wrap;rounded=0;fontSize=13;shadow=0;textShadow=1;labelBorderColor=none;labelBackgroundColor=none;fontFamily=Courier New;textOpacity=70;container=0;" parent="1" vertex="1">
          <mxGeometry x="317.7751877133811" y="201.19353041763497" width="78.80657643836298" height="36.22672621845859" as="geometry" />
        </mxCell>
        <mxCell id="12QicWPfA-HmWLYRQqsE-47" value="&lt;p style=&quot;line-height: 100%; font-size: 13px;&quot;&gt;Data Thread 3&lt;/p&gt;" style="text;html=1;align=center;verticalAlign=middle;whiteSpace=wrap;rounded=0;fontSize=13;shadow=0;textShadow=1;labelBorderColor=none;labelBackgroundColor=none;fontFamily=Courier New;textOpacity=70;container=0;" parent="1" vertex="1">
          <mxGeometry x="407.0893076768592" y="201.19353041763497" width="78.80657643836298" height="36.22672621845859" as="geometry" />
        </mxCell>
        <mxCell id="fVumDO0Jktd5kN5cqDBQ-85" value="" style="endArrow=none;startArrow=classic;html=1;rounded=0;shadow=1;endFill=0;fontFamily=Courier New;fontSize=13;" parent="1" edge="1">
          <mxGeometry width="50" height="50" relative="1" as="geometry">
            <mxPoint x="445.24169785733653" y="332.79792083266057" as="sourcePoint" />
            <mxPoint x="445.17915295540126" y="238.41442901241928" as="targetPoint" />
          </mxGeometry>
        </mxCell>
        <mxCell id="fVumDO0Jktd5kN5cqDBQ-86" value="Mem" style="text;html=1;align=left;verticalAlign=middle;whiteSpace=wrap;rounded=0;fontSize=13;shadow=0;textShadow=1;labelBorderColor=none;labelBackgroundColor=none;fontFamily=Courier New;textOpacity=70;container=0;" parent="1" vertex="1">
          <mxGeometry x="445.835874425721" y="262.56557982472503" width="52.53771762557532" height="36.22672621845859" as="geometry" />
        </mxCell>
        <mxCell id="fVumDO0Jktd5kN5cqDBQ-90" value="" style="endArrow=none;startArrow=classic;html=1;rounded=0;shadow=1;endFill=0;fontFamily=Courier New;fontSize=13;" parent="1" edge="1">
          <mxGeometry width="50" height="50" relative="1" as="geometry">
            <mxPoint x="356.5603851369677" y="332.79792083266057" as="sourcePoint" />
            <mxPoint x="356.521754462243" y="238.41442901241928" as="targetPoint" />
          </mxGeometry>
        </mxCell>
        <mxCell id="fVumDO0Jktd5kN5cqDBQ-91" value="Mem" style="text;html=1;align=left;verticalAlign=middle;whiteSpace=wrap;rounded=0;fontSize=13;shadow=0;textShadow=1;labelBorderColor=none;labelBackgroundColor=none;fontFamily=Courier New;textOpacity=70;container=0;" parent="1" vertex="1">
          <mxGeometry x="357.1784759325628" y="262.56557982472503" width="52.53771762557532" height="36.22672621845859" as="geometry" />
        </mxCell>
        <mxCell id="fVumDO0Jktd5kN5cqDBQ-95" value="" style="endArrow=none;startArrow=classic;html=1;rounded=0;shadow=1;endFill=0;fontFamily=Courier New;fontSize=13;" parent="1" edge="1">
          <mxGeometry width="50" height="50" relative="1" as="geometry">
            <mxPoint x="264.9872904800651" y="332.79792083266057" as="sourcePoint" />
            <mxPoint x="264.58074861748617" y="238.41442901241928" as="targetPoint" />
          </mxGeometry>
        </mxCell>
        <mxCell id="fVumDO0Jktd5kN5cqDBQ-96" value="Mem" style="text;html=1;align=left;verticalAlign=middle;whiteSpace=wrap;rounded=0;fontSize=13;shadow=0;textShadow=1;labelBorderColor=none;labelBackgroundColor=none;fontFamily=Courier New;textOpacity=70;container=0;" parent="1" vertex="1">
          <mxGeometry x="265.23747008780583" y="262.56557982472503" width="52.53771762557532" height="36.22672621845859" as="geometry" />
        </mxCell>
        <mxCell id="fVumDO0Jktd5kN5cqDBQ-100" value="" style="endArrow=none;startArrow=classic;html=1;rounded=0;shadow=1;endFill=0;fontFamily=Courier New;fontSize=13;" parent="1" edge="1">
          <mxGeometry width="50" height="50" relative="1" as="geometry">
            <mxPoint x="172.45026851098453" y="332.79792083266057" as="sourcePoint" />
            <mxPoint x="172.63974277272942" y="238.41442901241928" as="targetPoint" />
          </mxGeometry>
        </mxCell>
        <mxCell id="fVumDO0Jktd5kN5cqDBQ-101" value="Mem" style="text;html=1;align=left;verticalAlign=middle;whiteSpace=wrap;rounded=0;fontSize=13;shadow=0;textShadow=1;labelBorderColor=none;labelBackgroundColor=none;fontFamily=Courier New;textOpacity=70;container=0;" parent="1" vertex="1">
          <mxGeometry x="173.29646424304912" y="262.56557982472503" width="52.53771762557532" height="36.22672621845859" as="geometry" />
        </mxCell>
        <mxCell id="wf1mn4gk6DvyiKfGatTj-2" value="&lt;div style=&quot;font-size: 16px; line-height: 100%;&quot;&gt;Data Cache&lt;/div&gt;" style="rounded=1;whiteSpace=wrap;html=1;fontSize=16;shadow=1;fillColor=#dae8fc;strokeColor=#6c8ebf;fontFamily=Courier New;textShadow=1;textOpacity=70;container=0;" parent="1" vertex="1">
          <mxGeometry x="133.89317602386762" y="332.79750772087027" width="347.0138323840521" height="72.45345243691717" as="geometry" />
        </mxCell>
        <mxCell id="wf1mn4gk6DvyiKfGatTj-78" value="Instructions" style="text;html=1;align=center;verticalAlign=middle;whiteSpace=wrap;rounded=0;fontSize=15;shadow=0;textShadow=1;fontFamily=Courier New;textOpacity=70;container=0;" parent="1" vertex="1">
          <mxGeometry x="219.9236886357472" y="771.7732737815414" width="170.74758228311978" height="36.22672621845859" as="geometry" />
        </mxCell>
        <mxCell id="12QicWPfA-HmWLYRQqsE-17" value="Bridge" style="rounded=1;whiteSpace=wrap;html=1;fillColor=#ffe6cc;fontSize=16;shadow=1;strokeColor=#d79b00;fontFamily=Courier New;textShadow=1;textOpacity=70;container=0;" parent="1" vertex="1">
          <mxGeometry x="265.8941915581256" y="610.535742062386" width="78.80657643836298" height="48.302301624611445" as="geometry" />
        </mxCell>
        <mxCell id="fVumDO0Jktd5kN5cqDBQ-3" value="&lt;div style=&quot;font-size: 16px; line-height: 100%;&quot;&gt;Serializer&lt;/div&gt;" style="rounded=1;whiteSpace=wrap;html=1;fontSize=16;shadow=1;fillColor=#d5e8d4;strokeColor=#82b366;fontFamily=Courier New;textShadow=1;textOpacity=70;container=0;" parent="1" vertex="1">
          <mxGeometry x="242.2522186266167" y="477.70441259470465" width="131.3442940639383" height="60.3778770307643" as="geometry" />
        </mxCell>
        <mxCell id="fVumDO0Jktd5kN5cqDBQ-11" value="" style="endArrow=none;startArrow=classic;html=1;rounded=0;shadow=1;endFill=0;fontFamily=Courier New;fontSize=13;" parent="1" edge="1">
          <mxGeometry width="50" height="50" relative="1" as="geometry">
            <mxPoint x="307.92436565858577" y="477.70441259470465" as="sourcePoint" />
            <mxPoint x="307.9243656585859" y="405.25096015778746" as="targetPoint" />
          </mxGeometry>
        </mxCell>
        <mxCell id="fVumDO0Jktd5kN5cqDBQ-41" value="Mem" style="text;html=1;align=left;verticalAlign=middle;whiteSpace=wrap;rounded=0;fontSize=13;shadow=0;textShadow=1;labelBorderColor=none;labelBackgroundColor=none;fontFamily=Courier New;textOpacity=70;container=0;" parent="1" vertex="1">
          <mxGeometry x="307.92436565858577" y="429.40211097009313" width="52.53771762557532" height="36.22672621845859" as="geometry" />
        </mxCell>
        <mxCell id="fVumDO0Jktd5kN5cqDBQ-54" value="" style="endArrow=none;startArrow=classic;html=1;rounded=0;shadow=1;endFill=0;fontFamily=Courier New;fontSize=13;" parent="1" edge="1">
          <mxGeometry width="50" height="50" relative="1" as="geometry">
            <mxPoint x="306.6109227179465" y="610.535742062386" as="sourcePoint" />
            <mxPoint x="307.01809002954474" y="538.0822896254689" as="targetPoint" />
          </mxGeometry>
        </mxCell>
        <mxCell id="fVumDO0Jktd5kN5cqDBQ-55" value="Mem" style="text;html=1;align=left;verticalAlign=middle;whiteSpace=wrap;rounded=0;fontSize=13;shadow=0;textShadow=1;labelBorderColor=none;labelBackgroundColor=none;fontFamily=Courier New;textOpacity=70;container=0;" parent="1" vertex="1">
          <mxGeometry x="307.92436565858577" y="562.2334404377748" width="52.53771762557532" height="36.22672621845859" as="geometry" />
        </mxCell>
        <mxCell id="fVumDO0Jktd5kN5cqDBQ-70" value="" style="endArrow=none;startArrow=classic;html=1;rounded=0;shadow=1;endFill=0;fontFamily=Courier New;fontSize=13;" parent="1" edge="1">
          <mxGeometry width="50" height="50" relative="1" as="geometry">
            <mxPoint x="304.5083102793599" y="769.8701948753618" as="sourcePoint" />
            <mxPoint x="304.85090917748994" y="658.8380436869974" as="targetPoint" />
          </mxGeometry>
        </mxCell>
        <mxCell id="12QicWPfA-HmWLYRQqsE-8" value="Data" style="text;html=1;align=center;verticalAlign=middle;whiteSpace=wrap;rounded=0;fontSize=15;shadow=0;textShadow=1;labelBorderColor=none;labelBackgroundColor=none;fontFamily=Courier New;textOpacity=70;container=0;" parent="1" vertex="1">
          <mxGeometry x="486.3300193168902" y="771.77060444382" width="99.8216634885931" height="36.22672621845859" as="geometry" />
        </mxCell>
        <mxCell id="ezgv-_dQjElpDktnh5IQ-1" value="&lt;div style=&quot;font-size: 16px; line-height: 100%;&quot;&gt;Instr Cache&lt;/div&gt;" style="rounded=1;whiteSpace=wrap;html=1;fontSize=16;shadow=1;fillColor=#dae8fc;strokeColor=#6c8ebf;fontFamily=Courier New;textShadow=1;textOpacity=70;container=0;" parent="1" vertex="1">
          <mxGeometry x="499.464448723284" y="332.8993556660723" width="78.80657643836298" height="72.45345243691717" as="geometry" />
        </mxCell>
        <mxCell id="ezgv-_dQjElpDktnh5IQ-2" value="Bridge" style="rounded=1;whiteSpace=wrap;html=1;fillColor=#ffe6cc;fontSize=16;shadow=1;strokeColor=#d79b00;fontFamily=Courier New;textShadow=1;textOpacity=70;container=0;" parent="1" vertex="1">
          <mxGeometry x="496.8375628420052" y="610.6375900075878" width="78.80657643836298" height="48.302301624611445" as="geometry" />
        </mxCell>
        <mxCell id="fVumDO0Jktd5kN5cqDBQ-2" value="&lt;div style=&quot;font-size: 16px; line-height: 100%;&quot;&gt;Serializer&lt;/div&gt;" style="rounded=1;whiteSpace=wrap;html=1;fontSize=16;shadow=1;fillColor=#d5e8d4;strokeColor=#82b366;fontFamily=Courier New;textShadow=1;textOpacity=70;container=0;" parent="1" vertex="1">
          <mxGeometry x="473.19558991049627" y="477.80626053990653" width="131.3442940639383" height="60.3778770307643" as="geometry" />
        </mxCell>
        <mxCell id="fVumDO0Jktd5kN5cqDBQ-9" value="" style="endArrow=none;startArrow=classic;html=1;rounded=0;shadow=1;endFill=0;fontFamily=Courier New;fontSize=13;" parent="1" edge="1">
          <mxGeometry width="50" height="50" relative="1" as="geometry">
            <mxPoint x="537.5542940018261" y="477.80626053990653" as="sourcePoint" />
            <mxPoint x="537.9614613134244" y="405.3528081029894" as="targetPoint" />
          </mxGeometry>
        </mxCell>
        <mxCell id="fVumDO0Jktd5kN5cqDBQ-45" value="Mem" style="text;html=1;align=left;verticalAlign=middle;whiteSpace=wrap;rounded=0;fontSize=13;shadow=0;textShadow=1;labelBorderColor=none;labelBackgroundColor=none;fontFamily=Courier New;textOpacity=70;container=0;" parent="1" vertex="1">
          <mxGeometry x="538.8677369424655" y="429.5039589152952" width="52.53771762557532" height="36.22672621845859" as="geometry" />
        </mxCell>
        <mxCell id="fVumDO0Jktd5kN5cqDBQ-47" value="" style="endArrow=none;html=1;rounded=0;shadow=1;strokeColor=#b85450;fillColor=#f8cecc;fontFamily=Courier New;fontSize=13;" parent="1" edge="1">
          <mxGeometry width="50" height="50" relative="1" as="geometry">
            <mxPoint x="525.7333075360716" y="436.7493041589868" as="sourcePoint" />
            <mxPoint x="552.0021663488592" y="412.59815334668104" as="targetPoint" />
          </mxGeometry>
        </mxCell>
        <mxCell id="fVumDO0Jktd5kN5cqDBQ-49" value="" style="endArrow=none;startArrow=classic;html=1;rounded=0;shadow=1;endFill=0;fontFamily=Courier New;fontSize=13;" parent="1" edge="1">
          <mxGeometry width="50" height="50" relative="1" as="geometry">
            <mxPoint x="537.5542940018261" y="610.6375900075878" as="sourcePoint" />
            <mxPoint x="537.9614613134244" y="538.1841375706708" as="targetPoint" />
          </mxGeometry>
        </mxCell>
        <mxCell id="fVumDO0Jktd5kN5cqDBQ-50" value="Mem" style="text;html=1;align=left;verticalAlign=middle;whiteSpace=wrap;rounded=0;fontSize=13;shadow=0;textShadow=1;labelBorderColor=none;labelBackgroundColor=none;fontFamily=Courier New;textOpacity=70;container=0;" parent="1" vertex="1">
          <mxGeometry x="538.8677369424655" y="562.3352883829765" width="52.53771762557532" height="36.22672621845859" as="geometry" />
        </mxCell>
        <mxCell id="fVumDO0Jktd5kN5cqDBQ-52" value="" style="endArrow=none;html=1;rounded=0;shadow=1;strokeColor=#b85450;fillColor=#f8cecc;fontFamily=Courier New;fontSize=13;" parent="1" edge="1">
          <mxGeometry width="50" height="50" relative="1" as="geometry">
            <mxPoint x="525.7333075360716" y="569.5806336266683" as="sourcePoint" />
            <mxPoint x="552.0021663488592" y="545.4294828143626" as="targetPoint" />
          </mxGeometry>
        </mxCell>
        <mxCell id="fVumDO0Jktd5kN5cqDBQ-65" value="" style="endArrow=none;startArrow=classic;html=1;rounded=0;shadow=1;endFill=0;fontFamily=Courier New;fontSize=13;" parent="1" edge="1">
          <mxGeometry width="50" height="50" relative="1" as="geometry">
            <mxPoint x="536.8147925142391" y="769.8701948753618" as="sourcePoint" />
            <mxPoint x="536.3853297846571" y="658.9398916321994" as="targetPoint" />
          </mxGeometry>
        </mxCell>
        <mxCell id="fVumDO0Jktd5kN5cqDBQ-66" value="OBI" style="text;html=1;align=left;verticalAlign=middle;whiteSpace=wrap;rounded=0;fontSize=13;shadow=0;textShadow=1;labelBorderColor=none;labelBackgroundColor=none;fontFamily=Courier New;textOpacity=70;container=0;" parent="1" vertex="1">
          <mxGeometry x="535.584129590867" y="683.0910424445051" width="52.53771762557532" height="36.22672621845859" as="geometry" />
        </mxCell>
        <mxCell id="fVumDO0Jktd5kN5cqDBQ-68" value="" style="endArrow=none;html=1;rounded=0;shadow=1;strokeColor=#b85450;fillColor=#f8cecc;fontFamily=Courier New;fontSize=13;" parent="1" edge="1">
          <mxGeometry width="50" height="50" relative="1" as="geometry">
            <mxPoint x="522.4497001844732" y="690.3363876881967" as="sourcePoint" />
            <mxPoint x="548.718558997261" y="666.1852368758911" as="targetPoint" />
          </mxGeometry>
        </mxCell>
        <mxCell id="fVumDO0Jktd5kN5cqDBQ-35" value="" style="endArrow=none;html=1;rounded=0;shadow=1;strokeColor=#b85450;fillColor=#f8cecc;fontFamily=Courier New;fontSize=13;" parent="1" edge="1">
          <mxGeometry width="50" height="50" relative="1" as="geometry">
            <mxPoint x="525.7333075360716" y="269.91277301361873" as="sourcePoint" />
            <mxPoint x="552.0021663488593" y="245.761622201313" as="targetPoint" />
          </mxGeometry>
        </mxCell>
        <mxCell id="fVumDO0Jktd5kN5cqDBQ-36" value="32-bit" style="text;html=1;align=left;verticalAlign=middle;whiteSpace=wrap;rounded=0;fontSize=13;shadow=0;textShadow=1;labelBorderColor=none;labelBackgroundColor=none;fontFamily=Courier New;textOpacity=70;fontColor=#990000;container=0;" parent="1" vertex="1">
          <mxGeometry x="545.4349516456624" y="238.51627695762127" width="52.537717625575326" height="36.22672621845859" as="geometry" />
        </mxCell>
        <mxCell id="fVumDO0Jktd5kN5cqDBQ-48" value="size of cache line" style="text;html=1;align=left;verticalAlign=middle;whiteSpace=wrap;rounded=0;fontSize=12;shadow=0;textShadow=1;labelBorderColor=none;labelBackgroundColor=none;fontFamily=Courier New;textOpacity=70;fontColor=#990000;container=0;" parent="1" vertex="1">
          <mxGeometry x="555" y="404.05" width="75.57" height="36.23" as="geometry" />
        </mxCell>
        <mxCell id="fVumDO0Jktd5kN5cqDBQ-88" value="" style="endArrow=none;html=1;rounded=0;shadow=1;strokeColor=#b85450;fillColor=#f8cecc;fontFamily=Courier New;fontSize=13;" parent="1" edge="1">
          <mxGeometry width="50" height="50" relative="1" as="geometry">
            <mxPoint x="432.70144501932725" y="269.81092506841674" as="sourcePoint" />
            <mxPoint x="458.9703038321149" y="245.659774256111" as="targetPoint" />
          </mxGeometry>
        </mxCell>
        <mxCell id="fVumDO0Jktd5kN5cqDBQ-89" value="32-bit" style="text;html=1;align=left;verticalAlign=middle;whiteSpace=wrap;rounded=0;fontSize=13;shadow=0;textShadow=1;labelBorderColor=none;labelBackgroundColor=none;fontFamily=Courier New;textOpacity=70;fontColor=#990000;container=0;" parent="1" vertex="1">
          <mxGeometry x="452.403089128918" y="238.41442901241928" width="52.537717625575326" height="36.22672621845859" as="geometry" />
        </mxCell>
        <mxCell id="fVumDO0Jktd5kN5cqDBQ-93" value="" style="endArrow=none;html=1;rounded=0;shadow=1;strokeColor=#b85450;fillColor=#f8cecc;fontFamily=Courier New;fontSize=13;" parent="1" edge="1">
          <mxGeometry width="50" height="50" relative="1" as="geometry">
            <mxPoint x="344.0440465261689" y="269.81092506841674" as="sourcePoint" />
            <mxPoint x="370.31290533895657" y="245.659774256111" as="targetPoint" />
          </mxGeometry>
        </mxCell>
        <mxCell id="fVumDO0Jktd5kN5cqDBQ-94" value="32-bit" style="text;html=1;align=left;verticalAlign=middle;whiteSpace=wrap;rounded=0;fontSize=13;shadow=0;textShadow=1;labelBorderColor=none;labelBackgroundColor=none;fontFamily=Courier New;textOpacity=70;fontColor=#990000;container=0;" parent="1" vertex="1">
          <mxGeometry x="363.7456906357597" y="238.41442901241928" width="52.537717625575326" height="36.22672621845859" as="geometry" />
        </mxCell>
        <mxCell id="fVumDO0Jktd5kN5cqDBQ-98" value="" style="endArrow=none;html=1;rounded=0;shadow=1;strokeColor=#b85450;fillColor=#f8cecc;fontFamily=Courier New;fontSize=13;" parent="1" edge="1">
          <mxGeometry width="50" height="50" relative="1" as="geometry">
            <mxPoint x="252.10304068141212" y="269.81092506841674" as="sourcePoint" />
            <mxPoint x="278.3718994941998" y="245.659774256111" as="targetPoint" />
          </mxGeometry>
        </mxCell>
        <mxCell id="fVumDO0Jktd5kN5cqDBQ-99" value="32-bit" style="text;html=1;align=left;verticalAlign=middle;whiteSpace=wrap;rounded=0;fontSize=13;shadow=0;textShadow=1;labelBorderColor=none;labelBackgroundColor=none;fontFamily=Courier New;textOpacity=70;fontColor=#990000;container=0;" parent="1" vertex="1">
          <mxGeometry x="271.8046847910029" y="238.41442901241928" width="52.537717625575326" height="36.22672621845859" as="geometry" />
        </mxCell>
        <mxCell id="fVumDO0Jktd5kN5cqDBQ-103" value="" style="endArrow=none;html=1;rounded=0;shadow=1;strokeColor=#b85450;fillColor=#f8cecc;fontFamily=Courier New;fontSize=13;" parent="1" edge="1">
          <mxGeometry width="50" height="50" relative="1" as="geometry">
            <mxPoint x="160.16203483665538" y="269.81092506841674" as="sourcePoint" />
            <mxPoint x="186.43089364944305" y="245.659774256111" as="targetPoint" />
          </mxGeometry>
        </mxCell>
        <mxCell id="fVumDO0Jktd5kN5cqDBQ-104" value="32-bit" style="text;html=1;align=left;verticalAlign=middle;whiteSpace=wrap;rounded=0;fontSize=13;shadow=0;textShadow=1;labelBorderColor=none;labelBackgroundColor=none;fontFamily=Courier New;textOpacity=70;fontColor=#990000;container=0;" parent="1" vertex="1">
          <mxGeometry x="179.86367894624613" y="238.41442901241928" width="52.537717625575326" height="36.22672621845859" as="geometry" />
        </mxCell>
        <mxCell id="fVumDO0Jktd5kN5cqDBQ-43" value="" style="endArrow=none;html=1;rounded=0;shadow=1;strokeColor=#b85450;fillColor=#f8cecc;fontFamily=Courier New;fontSize=13;" parent="1" edge="1">
          <mxGeometry width="50" height="50" relative="1" as="geometry">
            <mxPoint x="294.78993625219204" y="436.6474562137849" as="sourcePoint" />
            <mxPoint x="321.0587950649797" y="412.49630540147916" as="targetPoint" />
          </mxGeometry>
        </mxCell>
        <mxCell id="fVumDO0Jktd5kN5cqDBQ-44" value="size of cache line" style="text;html=1;align=left;verticalAlign=middle;whiteSpace=wrap;rounded=0;fontSize=12;shadow=0;textShadow=1;labelBorderColor=none;labelBackgroundColor=none;fontFamily=Courier New;textOpacity=70;fontColor=#990000;container=0;" parent="1" vertex="1">
          <mxGeometry x="326.21000000000004" y="405.74" width="83.51" height="36.23" as="geometry" />
        </mxCell>
        <mxCell id="fVumDO0Jktd5kN5cqDBQ-57" value="" style="endArrow=none;html=1;rounded=0;shadow=1;strokeColor=#b85450;fillColor=#f8cecc;fontFamily=Courier New;fontSize=13;" parent="1" edge="1">
          <mxGeometry width="50" height="50" relative="1" as="geometry">
            <mxPoint x="294.78993625219204" y="569.4787856814663" as="sourcePoint" />
            <mxPoint x="321.0587950649797" y="545.3276348691606" as="targetPoint" />
          </mxGeometry>
        </mxCell>
        <mxCell id="fVumDO0Jktd5kN5cqDBQ-58" value="32-bit" style="text;html=1;align=left;verticalAlign=middle;whiteSpace=wrap;rounded=0;fontSize=12;shadow=0;textShadow=1;labelBorderColor=none;labelBackgroundColor=none;fontFamily=Courier New;textOpacity=70;fontColor=#990000;container=0;" parent="1" vertex="1">
          <mxGeometry x="314.4915803617828" y="538.0822896254689" width="177.3147969863167" height="36.22672621845859" as="geometry" />
        </mxCell>
        <mxCell id="fVumDO0Jktd5kN5cqDBQ-71" value="OBI" style="text;html=1;align=left;verticalAlign=middle;whiteSpace=wrap;rounded=0;fontSize=13;shadow=0;textShadow=1;labelBorderColor=none;labelBackgroundColor=none;fontFamily=Courier New;textOpacity=70;container=0;" parent="1" vertex="1">
          <mxGeometry x="304.6407583069875" y="682.9891944993032" width="52.53771762557532" height="36.22672621845859" as="geometry" />
        </mxCell>
        <mxCell id="fVumDO0Jktd5kN5cqDBQ-73" value="" style="endArrow=none;html=1;rounded=0;shadow=1;strokeColor=#b85450;fillColor=#f8cecc;fontFamily=Courier New;fontSize=13;" parent="1" edge="1">
          <mxGeometry width="50" height="50" relative="1" as="geometry">
            <mxPoint x="291.50632890059364" y="690.2345397429948" as="sourcePoint" />
            <mxPoint x="317.7751877133813" y="666.0833889306891" as="targetPoint" />
          </mxGeometry>
        </mxCell>
        <mxCell id="fVumDO0Jktd5kN5cqDBQ-74" value="32-bit" style="text;html=1;align=left;verticalAlign=middle;whiteSpace=wrap;rounded=0;fontSize=12;shadow=0;textShadow=1;labelBorderColor=none;labelBackgroundColor=none;fontFamily=Courier New;textOpacity=70;fontColor=#990000;container=0;" parent="1" vertex="1">
          <mxGeometry x="311.2079730101844" y="658.8380436869974" width="177.3147969863167" height="36.22672621845859" as="geometry" />
        </mxCell>
        <mxCell id="fVumDO0Jktd5kN5cqDBQ-53" value="32-bit" style="text;html=1;align=left;verticalAlign=middle;whiteSpace=wrap;rounded=0;fontSize=12;shadow=0;textShadow=1;labelBorderColor=none;labelBackgroundColor=none;fontFamily=Courier New;textOpacity=70;fontColor=#990000;container=0;" parent="1" vertex="1">
          <mxGeometry x="545.4349516456623" y="538.1841375706708" width="177.3147969863167" height="36.22672621845859" as="geometry" />
        </mxCell>
        <mxCell id="fVumDO0Jktd5kN5cqDBQ-69" value="32-bit" style="text;html=1;align=left;verticalAlign=middle;whiteSpace=wrap;rounded=0;fontSize=12;shadow=0;textShadow=1;labelBorderColor=none;labelBackgroundColor=none;fontFamily=Courier New;textOpacity=70;fontColor=#990000;container=0;" parent="1" vertex="1">
          <mxGeometry x="545.4383364285907" y="658.9398916321994" width="177.3147969863167" height="36.22672621845859" as="geometry" />
        </mxCell>
        <mxCell id="pyyxjIHwbWCA1qoJpp-k-8" value="Memory Hierarchy" style="text;html=1;align=left;verticalAlign=middle;whiteSpace=wrap;rounded=0;fontSize=16;shadow=0;textShadow=1;fontFamily=Courier New;textOpacity=70;container=0;" parent="1" vertex="1">
          <mxGeometry x="120.92" y="691" width="187" height="36.23" as="geometry" />
        </mxCell>
      </root>
    </mxGraphModel>
  </diagram>
</mxfile>
